<?xml version="1.0" encoding="UTF-8" standalone="no"?>
<!DOCTYPE svg PUBLIC "-//W3C//DTD SVG 1.1//EN" "http://www.w3.org/Graphics/SVG/1.1/DTD/svg11.dtd">
<svg width="100%" height="100%" viewBox="0 0 135 81" version="1.1" xmlns="http://www.w3.org/2000/svg" xmlns:xlink="http://www.w3.org/1999/xlink" xml:space="preserve" xmlns:serif="http://www.serif.com/" style="fill-rule:evenodd;clip-rule:evenodd;stroke-linejoin:round;stroke-miterlimit:2;">
    <g transform="matrix(1,0,0,-1,0,83.949)">
        <path d="M91.266,70.25C108.754,78.625 122.738,83.578 129.891,83.929C130.125,83.941 130.352,83.949 130.57,83.949L130.73,83.949C132.828,83.937 134.172,83.449 134.719,82.5C137.344,77.894 121.324,63.203 94.883,45.976C94.961,46.605 94.883,47.222 94.582,47.773C94.262,48.363 93.746,48.781 93.125,49.035C117.113,64.375 131.836,76.761 129.977,80.039C129.66,80.574 128.902,80.847 127.703,80.859C122.586,80.887 109.945,76.137 93.145,67.879C96.398,64.359 98.867,60.191 100.395,55.648C99.461,54.972 98.406,54.254 97.309,53.523C95.18,66.996 83.566,76.926 69.922,76.929C54.602,76.929 42.18,64.511 42.18,49.187C42.191,40.699 46.09,32.683 52.758,27.433C51.219,26.605 49.77,25.84 48.535,25.211C46.625,24.238 45.121,23.554 42.652,22.617C39.531,26.191 37.191,30.387 35.789,34.922C15.363,21.383 3.504,10.949 5.164,7.976C7.191,4.523 27.43,12.144 54.762,26.656C54.727,26.105 54.82,25.566 55.082,25.082C55.457,24.394 56.094,23.941 56.852,23.711C26.41,7.75 3.125,0 0.273,4.875C0.102,5.179 0.012,5.527 0,5.918L0,6.101C0.156,11.308 13.414,23.457 34.996,38C34.516,40.269 34.273,42.582 34.266,44.898C34.266,53.906 37.844,62.543 44.211,68.914C50.582,75.281 59.219,78.859 68.227,78.859C76.785,78.847 85.023,75.605 91.293,69.781C91.285,69.937 91.273,70.094 91.266,70.25ZM97.344,45.183C99.363,46.519 100.918,47.582 101.977,48.328C102.105,47.187 102.172,46.043 102.184,44.898C102.184,35.89 98.605,27.254 92.238,20.887C85.867,14.519 77.23,10.941 68.223,10.941C61.027,10.953 54.02,13.254 48.215,17.508C51.512,18.906 54.902,20.609 58.039,22.219C58.746,22.582 59.402,22.929 60.086,23.285C62.82,22.25 65.699,21.652 68.621,21.515L75.441,28.648L75.379,28.715C75.301,28.785 75.305,28.902 75.379,28.98L81.648,35.422C81.695,35.469 81.758,35.488 81.82,35.48C81.824,35.48 81.832,35.476 81.844,35.472C81.871,35.457 81.891,35.453 81.918,35.426L82.621,34.742C82.699,34.668 82.699,34.551 82.621,34.472L82.27,34.105C82.258,34.074 82.246,34.054 82.219,34.031L81.82,33.644L76.352,28.031C76.277,27.957 76.16,27.953 76.082,28.027L76.023,28.086L75.945,28.008C75.914,28.004 75.887,27.984 75.855,27.961L68.992,21.496C69.301,21.476 69.613,21.457 69.922,21.449C83.688,21.465 95.355,31.566 97.344,45.183ZM75.484,42.797C76.418,45.676 79.031,47.679 82.051,47.836C82.781,47.875 83.516,47.804 84.223,47.625L84.223,47.617C86.102,47.14 87.715,45.937 88.707,44.273C89.695,42.609 89.984,40.617 89.508,38.738C88.613,35.222 85.277,32.898 81.668,33.277L82.895,34.531C82.965,34.609 82.969,34.726 82.895,34.797L81.957,35.711C81.93,35.734 81.898,35.754 81.863,35.761C81.801,35.769 81.73,35.75 81.691,35.703L79.773,33.734C78.562,34.211 77.5,34.996 76.695,36.019L82.398,39.414C82.496,39.469 82.52,39.586 82.469,39.676L81.801,40.793C81.773,40.836 81.73,40.867 81.684,40.879C81.637,40.894 81.586,40.883 81.539,40.855L75.812,37.449C75.301,38.543 75.07,39.75 75.137,40.957L77.961,41.754C78.07,41.781 78.125,41.883 78.094,41.984L77.738,43.238C77.723,43.301 77.676,43.351 77.617,43.367C77.582,43.371 77.539,43.379 77.504,43.367L75.484,42.797ZM84.926,46.332C84.578,46.422 84.227,46.472 83.867,46.484C81.777,46.562 79.855,45.344 79.027,43.426C80.043,44.156 81.332,44.402 82.547,44.094C84.812,43.519 86.18,41.219 85.605,38.953C85.328,37.863 84.629,36.926 83.66,36.351C85.984,36.344 88.02,37.918 88.594,40.172C88.926,41.472 88.723,42.855 88.035,44.011C87.348,45.168 86.23,46.004 84.926,46.332ZM68.688,40.722L77.336,43.164C77.375,43.176 77.414,43.172 77.449,43.16C77.504,43.14 77.555,43.101 77.57,43.039L77.836,42.094C77.863,41.996 77.805,41.894 77.703,41.863L77.047,41.676C77.023,41.64 76.984,41.621 76.945,41.609L75.781,41.32L69.051,39.422C68.945,39.39 68.844,39.449 68.812,39.547L68.805,39.57L68.504,39.492C68.473,39.5 68.438,39.504 68.406,39.496L54.703,36.203C54.707,36.211 54.707,36.215 54.703,36.219L54.699,36.226L54.699,36.23L68.586,40.355L68.555,40.488C68.523,40.59 68.582,40.691 68.688,40.722ZM81.391,40.586C81.434,40.609 81.48,40.609 81.523,40.605L81.527,40.605C81.574,40.594 81.617,40.562 81.645,40.519L82.145,39.676C82.195,39.586 82.164,39.469 82.074,39.414L74.352,34.816C74.258,34.761 74.141,34.789 74.086,34.879L74.066,34.918C74.051,34.918 74.02,34.914 74.004,34.898L61.828,27.801C61.832,27.816 61.828,27.82 61.82,27.824L61.816,27.828L61.816,27.832L73.672,35.601L73.598,35.726C73.543,35.816 73.574,35.929 73.664,35.984L81.391,40.586Z" style="fill:rgb(16,152,240);"/>
    </g>
</svg>
